<?xml version="1.0" encoding="utf-8"?>
<!-- Generator: Adobe Illustrator 27.5.0, SVG Export Plug-In . SVG Version: 6.00 Build 0)  -->
<svg version="1.1" xmlns="http://www.w3.org/2000/svg" xmlns:xlink="http://www.w3.org/1999/xlink" x="0px" y="0px"
	 viewBox="0 0 3710 3710" style="enable-background:new 0 0 3710 3710;" xml:space="preserve">
<g id="Background">
	<g>
		<g>
			<rect style="fill:#FFFFFF;" width="3710" height="3710"/>
		</g>
	</g>
</g>
<g id="Illustration">
	<g>
		<path style="fill:#F4F7FA;" d="M3219.741,1604.55c-78.527-513.996-400.488-1145.477-1036.556-1211.562
			c0,0-482.933-58.742-958.999,30.287C941.641,476.113,693.89,633.402,537.124,859.464
			c-156.768,226.063-209.134,501.715-145.582,764.516c41.276,170.692,69.169,347.351,61.514,522.746
			c-13.322,305.26-5.658,590.198,290.59,772.246c264.515,162.549,597.411,305.911,914.998,331.021
			c215.83,17.065,457.87-10.55,665.89-66.741C3384.648,2896.883,3298.268,2118.546,3219.741,1604.55z"/>
		<g>
			<g>
				
					<linearGradient id="SVGID_1_" gradientUnits="userSpaceOnUse" x1="-4127.8882" y1="-2835.2815" x2="-3663.7825" y2="131.6872" gradientTransform="matrix(-0.6654 -0.7465 -0.7465 0.6654 -1586.514 940.047)">
					<stop  offset="0.0036" style="stop-color:#E38DDD"/>
					<stop  offset="1" style="stop-color:#9571F6"/>
				</linearGradient>
				<path style="fill:url(#SVGID_1_);" d="M2119.068,3125.464c-16.038-5.598-45.993-31.917-50.974-41.997
					c-33.142-67.082-103.352-188.646-82.548-264.958c3.553-13.033,65.106-12.88,75.919-23.254
					c39.268-9.427,53.475-10.263,86.404-37.564c97.214-80.602-39.859-299.173,177.524-320.145
					c159.23-15.362,274.584,62.641,307.292-172.654c32.708-235.296,305.496-619.223,516.359-405.942
					c121.015,122.403-63.135,289.612-21.417,450.289c39.644,152.685-42.891,254.162-207.189,306.234s-99.264,132.346-84.216,272.687
					c18.077,168.579-230.542,145.484-344.413,125.031C2400.113,2996.719,2155.506,3016.645,2119.068,3125.464z"/>
				<g>
					<defs>
						<path id="SVGID_00000148626044696149978880000014532245250699576243_" d="M1952.407,2790.69
							c12.438,116.105,20.311,234.763,32.204,351.752c63.882,18.937,139.488,39.657,170.674-37.222
							c43.359-106.886,245.227-109.139,336.761-92.194c113.291,20.972,362.381,43.546,344.193-124.895
							c-15.142-140.225-80.073-220.624,84.211-272.667c164.284-52.043,246.791-153.539,207.178-306.235
							c-41.687-160.689,142.405-327.808,21.415-450.284c-210.817-213.408-483.764,170.878-516.305,405.862
							c-32.541,234.983-148.643,158.267-307.2,172.504c-216.465,19.437-82.784,243.616-176.634,318.398
							C2075.333,2814.333,2031.831,2791.65,1952.407,2790.69z"/>
					</defs>
					<clipPath id="SVGID_00000031893961786855391870000006789072603398600331_">
						<use xlink:href="#SVGID_00000148626044696149978880000014532245250699576243_"  style="overflow:visible;"/>
					</clipPath>
					<g style="clip-path:url(#SVGID_00000031893961786855391870000006789072603398600331_);">
						<path style="fill:#FCFDFE;" d="M2027.472,2958.034l-0.859-3.417c271.153-68.127,514.118-217.477,702.632-431.905
							c179.369-204.03,307.071-462.66,369.292-747.93l3.438,0.749c-62.348,285.855-190.321,545.028-370.086,749.505
							C2542.903,2740.004,2299.319,2889.732,2027.472,2958.034z"/>
						<path style="fill:#FCFDFE;" d="M2851.799,2957.323c-131.744-76.188-368.185-127.241-527.03-113.79l-0.295-3.506
							c159.47-13.495,396.815,37.757,529.085,114.25L2851.799,2957.323z"/>
						<path style="fill:#FCFDFE;" d="M2133.084,2930.212l-1.767-3.046c71.633-41.679,119.445-117.973,142.101-226.758
							c16.613-79.756,19.57-174.805,8.786-282.503l3.499-0.351c10.821,108.056,7.848,203.463-8.837,283.572
							C2253.996,2810.932,2205.621,2888.007,2133.084,2930.212z"/>
						<path style="fill:#FCFDFE;" d="M2756.286,2495.014l-1.925-2.949c130.953-85.489,295.352-81.148,410.211-62.448l-0.564,3.472
							C3049.762,2414.502,2886.294,2410.14,2756.286,2495.014z"/>
						<path style="fill:#FCFDFE;" d="M2953.823,2196.444l-3.382-0.969c20.876-72.698,40.486-225.153-62.758-429.409l3.142-1.588
							C2994.608,1969.806,2974.843,2123.254,2953.823,2196.444z"/>
					</g>
				</g>
			</g>
		</g>
		<g>
			<g>
				<defs>
					<path id="SVGID_00000065070913944992740090000015903336056744067218_" d="M2325.842,3195.118
						c-86.476-12.717-172.864-27.421-259.094-44.107c-1.403,1.268-29.748-186.7,59.537-285.276
						c176.559-190.968,57.634-362.361,23.71-463.917c-54.292-143.208-26.465-317.267,131.265-284.664
						c153.667,28.077,176.976-288.28,150.454-531.995c-22.636-118.618,89.283-262.541,200.97-295.433
						c114.016-36.441,227.798,38.149,262.667,274.588c52.787,273.759-147,438.847-220.98,576.1
						c-72.793,134.737,96.544,243.752-39.754,363.134c-114.645,106.077-259.135,182.332-206.279,315.578
						C2482.644,2950.862,2469.643,3058.566,2325.842,3195.118z"/>
				</defs>
				<clipPath id="SVGID_00000004505473523928289700000007618450043825841545_">
					<use xlink:href="#SVGID_00000065070913944992740090000015903336056744067218_"  style="overflow:visible;"/>
				</clipPath>
				
					<linearGradient id="SVGID_00000156579848486486650350000009233965531147946112_" gradientUnits="userSpaceOnUse" x1="78.2588" y1="-856.4518" x2="-542.647" y2="908.2294" gradientTransform="matrix(-0.8674 -0.4976 -0.4976 0.8674 2274.7078 2110.0093)">
					<stop  offset="0" style="stop-color:#FF9085"/>
					<stop  offset="1" style="stop-color:#FB6FBB"/>
				</linearGradient>
				
					<path style="clip-path:url(#SVGID_00000004505473523928289700000007618450043825841545_);fill:url(#SVGID_00000156579848486486650350000009233965531147946112_);" d="
					M2325.842,3195.118c-86.476-12.717-172.864-27.421-259.094-44.107c-1.403,1.268-29.748-186.7,59.537-285.276
					c176.559-190.968,57.634-362.361,23.71-463.917c-53.747-143.102-25.478-298.063,120.17-300.354
					c161.541-5.704,190.829-273.081,161.55-516.305c-22.636-118.618,89.283-262.541,200.97-295.433
					c114.016-36.441,227.798,38.149,262.667,274.588c52.787,273.759-147,438.847-220.98,576.1
					c-72.793,134.737,96.544,243.752-39.754,363.134c-114.645,106.077-259.135,182.332-206.279,315.578
					C2482.644,2950.862,2469.643,3058.566,2325.842,3195.118z"/>
				<g style="clip-path:url(#SVGID_00000004505473523928289700000007618450043825841545_);">
					<path style="fill:#FCFDFE;" d="M2210.199,3206.28l-3.516-0.055c-0.024-1.671,82.626-397.149,225.104-781.985
						c19.676-62.317,41.053-125.171,61.73-185.952c55.364-162.76,112.607-331.061,139.794-498.633
						c30.387-187.307,19.556-356.01-33.106-515.745l3.341-1.1c52.844,160.281,63.717,329.528,33.24,517.408
						c-27.235,167.865-84.527,336.306-139.938,499.203c-20.666,60.764-42.04,123.597-61.733,185.959
						C2291.509,2813.266,2210.413,3203.977,2210.199,3206.28z"/>
					<path style="fill:#FCFDFE;" d="M2596.919,1923.741l-2.619-2.358c96.396-107.101,212.709-259.314,275.199-341.088
						c50.317-65.848,50.589-65.714,52.658-65.422l-0.543,3.479l0.271-1.739l0.719,1.568c-2.547,1.753-23.626,29.335-50.307,64.253
						C2809.776,1664.248,2693.408,1816.53,2596.919,1923.741z"/>
					<path style="fill:#FCFDFE;" d="M2626.052,1776.831c-19.944-122.758-70.495-203.504-109.386-249.624
						c-42.951-50.933-82.526-73.142-86.572-73.637c0.007-0.003,0.392,0.041,0.835-0.247l-1.959-2.929
						c0.887-0.588,1.915-0.45,4.262,0.574c10.673,4.641,50.565,29.59,92.409,81.598c52.703,65.504,88.624,149.773,103.883,243.701
						L2626.052,1776.831z"/>
					<path style="fill:#FCFDFE;" d="M2350.502,2676.006l-3.492-0.419c13.595-114.213-13.018-237.067-79.11-365.146
						c-34.467-66.797-78.422-132.235-130.647-194.498c-3.781-4.51-5.112-6.108-5.534-6.833l3.046-1.767
						c0.306,0.522,2.461,3.09,5.187,6.339c52.39,62.462,96.489,128.117,131.077,195.144
						C2337.447,2437.543,2364.187,2561.078,2350.502,2676.006z"/>
					<path style="fill:#FCFDFE;" d="M2389.469,2555.76l-2.99-1.849c101.762-164.41,314.379-178.593,323.842-178.593
						c0.175,0,0.282,0.007,0.313,0.014l1.313,1.646l-1.203,1.733l-0.557-1.647l-0.155,1.722c-0.007-0.003-0.014-0.003-0.028-0.003
						C2706.522,2378.783,2491.52,2390.89,2389.469,2555.76z M2709.616,2375.377l0.564,1.664L2709.616,2375.377z"/>
					<path style="fill:#FCFDFE;" d="M2224.637,3141.776l-3.52-0.131c1.829-49.719-15.946-134.476-111.002-255.904
						c-5.167-6.596-5.167-6.596-5.026-7.583l3.486,0.502l-1.743-0.251l1.612-0.66c0.272,0.498,2.204,2.967,4.441,5.823
						C2208.598,3005.836,2226.483,3091.469,2224.637,3141.776z"/>
					<path style="fill:#FCFDFE;" d="M2246.592,3048.109l-3.383-0.983c10.962-37.819,54.102-111.923,219.873-183.295
						c2.293-0.987,3.767-1.619,4.293-1.887l1.609,3.128c-0.553,0.285-2.1,0.956-4.513,1.994
						C2300.03,2937.864,2257.378,3010.882,2246.592,3048.109z"/>
				</g>
			</g>
		</g>
		<g>
			<g>
				
					<linearGradient id="SVGID_00000091008967329313988610000015660355139980171443_" gradientUnits="userSpaceOnUse" x1="1849.5251" y1="4524.062" x2="1867.8251" y2="2199.78">
					<stop  offset="0" style="stop-color:#311944"/>
					<stop  offset="1" style="stop-color:#893976"/>
				</linearGradient>
				<path style="fill:url(#SVGID_00000091008967329313988610000015660355139980171443_);" d="M2603.552,3039.809l-381.417,11.842
					c-105.338-6.086-226.49-4.181-355.704-0.443c-129.601,3.749-251.793,9.464-358.477,21.763l-391.289,11.559v79.449h0.048
					c-0.007,0-0.048,0.078-0.048,0.233c0,50.754,337.926,81.34,751.189,68.522c409.351-12.697,737.716-65.947,736.939-115.81
					c-0.002-0.152-0.064-3.037-0.069-3.037L2603.552,3039.809z"/>
				
					<linearGradient id="SVGID_00000106835041768107637860000001070431842797311929_" gradientUnits="userSpaceOnUse" x1="1983.1348" y1="2718.5579" x2="1586.9347" y2="3826.1128">
					<stop  offset="0" style="stop-color:#311944"/>
					<stop  offset="1" style="stop-color:#893976"/>
				</linearGradient>
				<path style="fill:url(#SVGID_00000106835041768107637860000001070431842797311929_);" d="M2603.583,3040.748
					c0.777,49.782-327.337,100.071-736.352,112.382c-412.921,12.428-750.564-18.523-750.564-69.192
					c0-50.615,336.997-101.041,749.135-112.58C2274.047,2959.929,2602.807,2991.018,2603.583,3040.748z"/>
			</g>
			<path style="opacity:0.5;fill:#D8DEE8;" d="M2122.981,1867.961l-189.062,148.701l192.94,143.574
				c215.399,160.01,343.474,413.408,347.371,686.464l2.67,187.11c0.05,3.497-3.072,6.483-8.364,10.001l-582.66-13.705l-39.251,1.117
				l-591.58,47.829c-5.497-3.253-7.273-6.142-7.278-9.691l-0.261-189.854c-0.381-277.041,126.693-539.343,343.252-709.265
				l190.998-150.196l-192.834-143.919c-216.786-160.954-343.365-414.089-343.735-682.948l-0.265-192.843l587.288,24.912
				l38.731-0.212l576.847-30.919l2.714,190.162C2454.287,1449.383,2333.503,1702.292,2122.981,1867.961z"/>
			<path style="fill:#BFC8D6;" d="M2476.149,3033.76c0.05,3.497-2.689,6.999-7.98,10.517
				c-47.139,31.072-297.967,61.184-602.589,70.217c-306.783,9.096-563.041-6.275-611.944-34.944
				c-5.497-3.252-8.37-6.641-8.374-10.189c-0.047-35.061,278.321-71.292,619.329-80.906
				C2202.929,2978.915,2475.656,2999.208,2476.149,3033.76z"/>
			
				<linearGradient id="SVGID_00000075145764881355610360000016011630032447129002_" gradientUnits="userSpaceOnUse" x1="1865.0536" y1="1654.7772" x2="1832.8419" y2="4288.1968">
				<stop  offset="0" style="stop-color:#FFC444"/>
				<stop  offset="0.9964" style="stop-color:#F36F56"/>
			</linearGradient>
			<polygon style="fill:url(#SVGID_00000075145764881355610360000016011630032447129002_);" points="1875.868,2470.002 
				1844.427,2470.7 1840.516,1961.517 1871.789,1961.007 			"/>
			
				<linearGradient id="SVGID_00000125583173794603537850000012300653567854235530_" gradientUnits="userSpaceOnUse" x1="1856.6111" y1="1448.048" x2="1835.0541" y2="3210.4133">
				<stop  offset="0" style="stop-color:#FFC444"/>
				<stop  offset="0.9964" style="stop-color:#F36F56"/>
			</linearGradient>
			<path style="fill:url(#SVGID_00000125583173794603537850000012300653567854235530_);" d="M1855.501,1661.936l-362.493,4.66
				l18.865,31.376c0,0,134.704,192.782,346.242,296.304c208.837-110.023,338.798-305.269,338.798-305.269l18.068-31.692
				L1855.501,1661.936z"/>
			
				<linearGradient id="SVGID_00000127038997744349552300000010296411544986006688_" gradientUnits="userSpaceOnUse" x1="1966.1375" y1="358.7295" x2="1784.6237" y2="2457.4873">
				<stop  offset="0" style="stop-color:#FFC444"/>
				<stop  offset="0.9964" style="stop-color:#F36F56"/>
			</linearGradient>
			<path style="fill:url(#SVGID_00000127038997744349552300000010296411544986006688_);" d="M2214.911,1651.302
				c0.222,18.974-160.221,36.479-359.186,39.103c-199.885,2.635-362.664-10.737-362.741-29.872
				c-0.077-19.127,162.46-36.642,362.199-39.116C2054.003,1618.954,2214.689,1632.336,2214.911,1651.302z"/>
			
				<linearGradient id="SVGID_00000039832606557818046670000002789535950914717603_" gradientUnits="userSpaceOnUse" x1="1859.272" y1="2429.0488" x2="1859.2662" y2="2429.5166">
				<stop  offset="0" style="stop-color:#FFC444"/>
				<stop  offset="0.9964" style="stop-color:#F36F56"/>
			</linearGradient>
			<path style="fill:url(#SVGID_00000039832606557818046670000002789535950914717603_);" d="M1859.271,2429.194
				c-0.136-0.041-0.001-0.091-0.001-0.091S1859.407,2429.146,1859.271,2429.194z"/>
			
				<linearGradient id="SVGID_00000147178378969200314710000015689290537132869506_" gradientUnits="userSpaceOnUse" x1="1874.1495" y1="2031.3063" x2="1832.2523" y2="5456.5498">
				<stop  offset="0" style="stop-color:#FFC444"/>
				<stop  offset="0.9964" style="stop-color:#F36F56"/>
			</linearGradient>
			<path style="fill:url(#SVGID_00000147178378969200314710000015689290537132869506_);" d="M2368.244,3036.629
				c-179.212,40.058-458.606,52.379-499.268,53.574c0,0-2.666,0.078-4.52,0.133c-1.854,0.054-4.521,0.133-4.521,0.133
				c-21.617,0.635-111.053,2.113-217.69-1.106c-94.041-2.911-201.272-9.361-287.109-23.333c-0.183,0.005,0.432-0.652,0.432-0.699
				c0,0,0-0.045,0-0.137c0-1.153,0-9.272,0-22.275c0-0.047,0-0.047,0-0.092c3.853-66.289,13.638-257.87,47.045-299.229
				c39.779-49.226,443.517-305.286,456.921-314.269c13.536,8.395,417.152,244.454,456.883,291.211
				c10.679,12.555,19.265,40.668,26.213,74.823c7.905,38.781,13.59,85.829,17.579,128.052
				C2366.062,2985.198,2368.244,3036.629,2368.244,3036.629z"/>
			<g>
				<path style="fill:#FFFFFF;" d="M1511.455,1283.47c-4.275-119.533,6.074-206.32,6.074-206.32s-32.501-75.456-146.853-40.645
					c-29.9,88.257-41.619,173.031-40.023,248.492L1511.455,1283.47z"/>
				<path style="fill:#FFFFFF;" d="M1514.224,1336.683l-180.368,1.634c40.365,397.017,428.037,624.441,428.037,624.441l91.968-1.5
					C1599.895,1862.137,1529.705,1558.978,1514.224,1336.683z"/>
			</g>
			<g>
				<path style="fill:#FFFFFF;" d="M1525.796,3008.213l-163.082,4.617c-21.12-73.085-29.673-146.426-28.595-210.739l183.731-4.755
					C1514.585,2916.628,1525.315,3003.628,1525.796,3008.213z"/>
				<path style="fill:#FFFFFF;" d="M1520.194,2742.361l-183.069,4.622c38.74-411.493,425.661-653.957,425.661-653.957l92.094-1.641
					C1601.651,2204.194,1533.909,2513.926,1520.194,2742.361z"/>
			</g>
			<g>
				
					<linearGradient id="SVGID_00000142145469722079238470000000351967092088683431_" gradientUnits="userSpaceOnUse" x1="1920.2186" y1="2110.406" x2="1828.9871" y2="821.7659">
					<stop  offset="0" style="stop-color:#311944"/>
					<stop  offset="1" style="stop-color:#893976"/>
				</linearGradient>
				<path style="fill:url(#SVGID_00000142145469722079238470000000351967092088683431_);" d="M2571.628,994.436l-373.331,2.248
					c-103.09-8.219-221.652-9.357-348.097-8.716c-126.816,0.642-246.373,3.23-350.752,12.576l-382.783,2.064v72.917h0.047
					c-0.006,0-0.047,1.323-0.047,1.471c0,48.559,330.561,86.14,734.894,83.285c400.588-2.829,722.013-44.063,721.268-91.807
					c-0.002-0.146-0.046-0.656-0.051-0.656L2571.628,994.436z"/>
				
					<linearGradient id="SVGID_00000081644969222291625620000015690840213542010255_" gradientUnits="userSpaceOnUse" x1="1957.5396" y1="680.8015" x2="1592.3514" y2="1701.6641">
					<stop  offset="0" style="stop-color:#311944"/>
					<stop  offset="1" style="stop-color:#893976"/>
				</linearGradient>
				<path style="fill:url(#SVGID_00000081644969222291625620000015690840213542010255_);" d="M2571.65,993.91
					c0.744,47.666-320.424,88.332-720.689,90.806c-404.004,2.497-734.294-34.798-734.294-83.276
					c0-48.429,329.672-89.026,732.926-90.707C2249.121,909.067,2570.907,946.293,2571.65,993.91z"/>
			</g>
			
				<linearGradient id="SVGID_00000112592155427165803350000007898831010291862442_" gradientUnits="userSpaceOnUse" x1="1867.0939" y1="2607.5139" x2="1847.9412" y2="4173.3228">
				<stop  offset="0" style="stop-color:#FFC444"/>
				<stop  offset="0.9964" style="stop-color:#F36F56"/>
			</linearGradient>
			<path style="opacity:0.3;fill:url(#SVGID_00000112592155427165803350000007898831010291862442_);" d="M2368.244,3036.629
				c-179.212,40.058-458.606,52.379-499.268,53.574c0,0-2.666,0.078-4.52,0.133c-1.854,0.054-4.521,0.133-4.521,0.133
				c-21.617,0.635-111.053,2.113-217.69-1.106c-94.041-2.911-201.272-9.361-287.109-23.333c-0.183,0.005,0.432-0.652,0.432-0.699
				c0,0,0-0.045,0-0.137c0-1.153-0.64-9.261-0.079-22.281c100.913,0.102,310.877-7.303,401.941-66.428
				c121.431-78.877,222.702-83.955,355.489-62.481c108.993,17.648,187.789-43.312,229.678-118.64
				c7.903,38.781,13.585,85.829,17.618,128.051C2366.067,2985.198,2368.244,3036.629,2368.244,3036.629z"/>
		</g>
		<g>
			
				<linearGradient id="SVGID_00000141417095356451938350000000161598772425563068_" gradientUnits="userSpaceOnUse" x1="-1950.8573" y1="324.2351" x2="-1278.4653" y2="780.9538" gradientTransform="matrix(-1 0 0 1 314.5472 0)">
				<stop  offset="0" style="stop-color:#311944"/>
				<stop  offset="1" style="stop-color:#6B3976"/>
			</linearGradient>
			<path style="fill:url(#SVGID_00000141417095356451938350000000161598772425563068_);" d="M2228.462,567.172
				c12.649-8.202,1.124-32.058,0.443-83.302c-0.835-62.796,15.844-74.497,2.447-99.134c-16.38-30.126-57.614-42.592-84.933-43.18
				c-6.025-0.129-7.433-3.419-57.911,9.653c-90.942,23.553-113.709-1.695-154.433,23.525
				c-39.347,24.367-22.117,51.053-60.326,79.629c-61.932,46.321-127.059-3.758-171.322,34.988
				c-41.868,36.648-42.832,130.021,1.206,180.977c49.922,57.765,139.942,40.41,200.278,28.956
				c12.695-2.409,76.815-15.875,143.575-65.15c36.932-27.261,62.29-56.372,78.423-77.82c3.786-4.262,9.695-9.424,17.494-10.255
				c9.364-1,16.885,4.728,20.51,7.238C2182.949,566.477,2216.037,575.227,2228.462,567.172z"/>
			
				<linearGradient id="SVGID_00000067917763979090050500000007258181576437997472_" gradientUnits="userSpaceOnUse" x1="2307.7051" y1="102.9716" x2="2321.9622" y2="1906.584">
				<stop  offset="0" style="stop-color:#FF9085"/>
				<stop  offset="1" style="stop-color:#FB6FBB"/>
			</linearGradient>
			<path style="fill:url(#SVGID_00000067917763979090050500000007258181576437997472_);" d="M2142.918,503.427
				c16.264-14.816,109.023,17.265,147.488,55.169c45.188,44.53,41.714,80.634,81.151,135.954
				c19.604,27.502,53.214,64.525,112.769,96.958c-4.217,10.538-8.431,21.08-12.647,31.617
				c-28.795,1.731-85.324,0.713-138.063-33.723c-36.635-23.923-55.486-55.62-91.691-118.039
				C2205.591,608.718,2122.589,521.952,2142.918,503.427z"/>
			
				<linearGradient id="SVGID_00000065067498243783723780000009653640081309273993_" gradientUnits="userSpaceOnUse" x1="-1690.2662" y1="192.2695" x2="-1591.4502" y2="192.2695" gradientTransform="matrix(-0.831 -0.5562 -0.5562 0.831 1250.5945 279.3084)">
				<stop  offset="0" style="stop-color:#311944"/>
				<stop  offset="1" style="stop-color:#6B3976"/>
			</linearGradient>
			<path style="fill:url(#SVGID_00000065067498243783723780000009653640081309273993_);" d="M2532.854,1368.863l-18.493-39.293
				c-2.628-5.583-6.724-10.344-11.851-13.776l-9.158-6.129c0,0-21.89-0.581-25.298,13.179
				c-0.732,17.472,33.224,56.516,54.699,72.019c3.566,2.573,8.649,6.004,11.738,4.239
				C2539.722,1396.111,2536.052,1380.039,2532.854,1368.863z"/>
			
				<linearGradient id="SVGID_00000008115947897316576830000012876252430612636549_" gradientUnits="userSpaceOnUse" x1="-2206.7732" y1="1401.1299" x2="-2045.5237" y2="917.3799" gradientTransform="matrix(-1 0 0 1 314.5472 0)">
				<stop  offset="0" style="stop-color:#FFC444"/>
				<stop  offset="0.9964" style="stop-color:#F36F56"/>
			</linearGradient>
			<path style="fill:url(#SVGID_00000008115947897316576830000012876252430612636549_);" d="M2498.1,1288.3
				c-2.912,16.854,0.771,25.641,4.743,30.563c2.795,3.464,25.476,40.861,16.16,46.9c-4.204,2.725-33.019-33.056-35.813-38.538
				c-2.531-4.965-4.177-3.793-4.323-17.32c-0.096-8.906-1.907-16.074-3.332-20.558
				C2483.058,1288.996,2490.578,1288.65,2498.1,1288.3z"/>
			
				<linearGradient id="SVGID_00000037682938865989406280000015454823352046382976_" gradientUnits="userSpaceOnUse" x1="-2233.8105" y1="1178.9865" x2="-2178.4299" y2="1178.9865" gradientTransform="matrix(-1 0 0 1 314.5472 0)">
				<stop  offset="0" style="stop-color:#311944"/>
				<stop  offset="1" style="stop-color:#6B3976"/>
			</linearGradient>
			<path style="fill:url(#SVGID_00000037682938865989406280000015454823352046382976_);" d="M2530.852,1154.728
				c0,0,20.47,24.425,17.139,51.202c-3.33,26.775-39.18-12.371-44.177-25.601c-5-13.23-10.837-32.079-10.837-32.079
				S2518.116,1132.611,2530.852,1154.728z"/>
			
				<linearGradient id="SVGID_00000152959511140596497720000001623563618587006654_" gradientUnits="userSpaceOnUse" x1="-2265.9072" y1="1331.0507" x2="-2175.4773" y2="1059.7594" gradientTransform="matrix(-1 0 0 1 314.5472 0)">
				<stop  offset="0" style="stop-color:#FFC444"/>
				<stop  offset="0.9964" style="stop-color:#F36F56"/>
			</linearGradient>
			<path style="fill:url(#SVGID_00000152959511140596497720000001623563618587006654_);" d="M2523.044,1116.511
				c0,0-5.553,28.456,5.038,43.474c5.276,7.48,12.391,13.825,10.299,19.914c-1.402,4.08-6.727,7.012-11.237,6.549
				c-8.635-0.886-13.421-14.125-16.798-23.462c-4.986-13.791-7.766-43.301-7.766-43.301L2523.044,1116.511z"/>
			
				<linearGradient id="SVGID_00000156575756357856367630000018419565802024623294_" gradientUnits="userSpaceOnUse" x1="-8618.0068" y1="4657.8438" x2="-8177.3911" y2="4408.3779" gradientTransform="matrix(-1 0 0 1 314.5472 0)">
				<stop  offset="0.0036" style="stop-color:#E38DDD"/>
				<stop  offset="1" style="stop-color:#9571F6"/>
			</linearGradient>
			<path style="fill:url(#SVGID_00000156575756357856367630000018419565802024623294_);" d="M2506.729,1140.499
				c6.296-2.292,12.591-4.586,18.886-6.879c9.82-22.432,21.806-59.275,17.803-104.057
				c-10.296-115.164-116.81-176.192-128.644-182.723c-29.021,14.561-58.415,35.102-59.48,60.997
				c-1.335,32.507,42.948,49.69,84.576,97.224C2464.859,1033.591,2491.558,1076.105,2506.729,1140.499z"/>
			
				<linearGradient id="SVGID_00000040545977640334404170000012301923588200341924_" gradientUnits="userSpaceOnUse" x1="2117.6895" y1="732.3926" x2="2231.0833" y2="1215.126" gradientTransform="matrix(1 0 0 1 84.2618 0)">
				<stop  offset="0.0036" style="stop-color:#E38DDD"/>
				<stop  offset="1" style="stop-color:#9571F6"/>
			</linearGradient>
			<path style="fill:url(#SVGID_00000040545977640334404170000012301923588200341924_);" d="M2499.944,1301.473
				c20.8-81.252,15.486-147.555,9.486-185.752c-9.07-57.731-27.515-175.161-105.918-218.95
				c-17.121-9.562-41.596-18.125-71.427-44.71c-24.911-22.201-40.745-45.549-50.299-61.999
				c-104.854-30.759-201.568-18.294-244.245,37.941c-4.93,6.498-17.276,20.592-19.664,41.375
				c-5.389,46.89,40.684,103.343,92.384,115.132c65.706,14.982,103.825-52.484,162.039-30.037
				c16.284,6.279,30.09,21.839,57.702,52.959c35.126,39.588,54.872,76.118,62.343,90.735c22.244,43.527,39.113,75.658,41.573,117.3
				c0.573,9.701,0.914,29.3,12.278,50.438c8.722,16.226,20.545,27.044,29.34,33.728
				C2483.671,1300.245,2491.807,1300.86,2499.944,1301.473z"/>
			
				<linearGradient id="SVGID_00000181766947199169893990000001629106084857306010_" gradientUnits="userSpaceOnUse" x1="-2059.2168" y1="1336.1337" x2="-1963.3107" y2="1032.6068" gradientTransform="matrix(-1 0 0 1 314.5472 0)">
				<stop  offset="0.0036" style="stop-color:#E38DDD"/>
				<stop  offset="1" style="stop-color:#9571F6"/>
			</linearGradient>
			<path style="opacity:0.3;fill:url(#SVGID_00000181766947199169893990000001629106084857306010_);" d="M2017.877,869.378
				c2.388-20.783,14.734-34.877,19.664-41.375c42.677-56.235,139.39-68.7,244.245-37.941c9.553,16.449,25.387,39.798,50.298,61.999
				c29.831,26.585,54.307,35.147,71.427,44.71c47.876,26.739,73.372,80.931,88.053,132.229
				c-21.781-33.772-40.426-42.749-54.854-42.91c-20.652-0.229-29.881,17.429-54.54,15.018c-26.358-2.575-32.384-24.369-53.75-26.873
				c-6.395-0.749-14.263,0.237-23.714,5.268c-12.611-13.205-22.012-21.022-32.406-25.029
				c-58.214-22.446-96.333,45.02-162.039,30.037C2058.561,972.721,2012.488,916.269,2017.877,869.378z"/>
			
				<linearGradient id="SVGID_00000029761141614716894960000010600542432839499958_" gradientUnits="userSpaceOnUse" x1="-8593.6396" y1="4700.8672" x2="-8153.0244" y2="4451.4014" gradientTransform="matrix(-1 0 0 1 314.5472 0)">
				<stop  offset="0.0036" style="stop-color:#E38DDD"/>
				<stop  offset="1" style="stop-color:#9571F6"/>
			</linearGradient>
			<path style="fill:url(#SVGID_00000029761141614716894960000010600542432839499958_);" d="M2445.616,933.112
				c-11.868-0.631-30.143-0.996-52.189,1.182c-104.622,10.339-133.464,62.091-219.932,74.718
				c-20.454,2.988-111.526,16.289-150.972-36.359c-28.319-37.799-24.035-102.929,6.941-128.546
				c13.108-10.841,26.088-10.539,110.043-9.781c31.617,0.287,63.236,0.389,94.851,0.792c133.835,1.706,159.43-7.563,183.781,14.573
				C2429.499,860.017,2446.11,882.198,2445.616,933.112z"/>
			<g>
				<g>
					
						<linearGradient id="SVGID_00000029738425764903628180000002829106738573393082_" gradientUnits="userSpaceOnUse" x1="2130.967" y1="103.4215" x2="2145.0715" y2="1887.7222">
						<stop  offset="0" style="stop-color:#FF9085"/>
						<stop  offset="1" style="stop-color:#FB6FBB"/>
					</linearGradient>
					<path style="fill:url(#SVGID_00000029738425764903628180000002829106738573393082_);" d="M2163.079,503.707
						c0,0-105.64-30.808-152.165,21.859c-8.541,9.669-15.295,22.385-20.209,46.929c-25.043,125.076,69.678,200.202,32.36,266.186
						c-14.819,26.203-40.92,34.099-59.469,81.189c-3.139,7.972-14.498,36.809-4.075,45.895c9.179,8.002,24.273-8.893,51.087-5.63
						c28.396,3.455,35.03,25.268,54.135,22.093c12.457-2.072,17.827-12.707,36.177-39.22c26.567-38.386,39.85-57.579,49.372-64.309
						c37.57-26.551,66.609,8.075,109.453-18.217c15.511-9.519,72.981-83.513,56.074-63.188
						c-40.244-50.206-49.595-91.627-50.557-120.427c-1.054-31.574,8.047-45.924,0-83.249c0,0-1.74-19.628-34.132-55.389
						C2226.478,533.096,2213.698,505.732,2163.079,503.707z"/>
				</g>
			</g>
			<g>
				
					<linearGradient id="SVGID_00000141457418745268117230000007460466162568154009_" gradientUnits="userSpaceOnUse" x1="3644.4092" y1="166.2805" x2="3650.3752" y2="7.3673" gradientTransform="matrix(0.984 0.1784 -0.1784 0.984 -1433.8892 -244.2395)">
					<stop  offset="0" style="stop-color:#FFC444"/>
					<stop  offset="0.9964" style="stop-color:#F36F56"/>
				</linearGradient>
				<path style="fill:url(#SVGID_00000141457418745268117230000007460466162568154009_);" d="M2120.333,443.336
					c1.241,5.802,7.564,36.939-5.176,44.95c-2.761,1.737-8.067,2.732-18.68,4.721c-6.948,1.302-12.777,2.1-16.889,2.592
					c0.594,5.221,2.353,13.719,8.379,21.45c16.89,21.67,50.758,16.063,55.587,15.182c17.035-3.102,33.799-8.365,37.848-11.582
					c6.164-4.898,11.01-8.573,13.878-12.307c-6.593-3.186-19.903-11.588-28.835-14.337c-6.675-2.054-12.941-3.519-18.641-4.572
					c-0.936-6.015-1.874-12.029-2.812-18.044C2136.772,462.039,2128.553,452.688,2120.333,443.336z"/>
				
					<linearGradient id="SVGID_00000132802302061449836710000010359895980819993728_" gradientUnits="userSpaceOnUse" x1="3642.5471" y1="25.9913" x2="3639.9934" y2="231.7412" gradientTransform="matrix(0.984 0.1784 -0.1784 0.984 -1433.8892 -244.2395)">
					<stop  offset="0" style="stop-color:#FFC444"/>
					<stop  offset="0.9964" style="stop-color:#F36F56"/>
				</linearGradient>
				<path style="fill:url(#SVGID_00000132802302061449836710000010359895980819993728_);" d="M2119.737,458.854
					c0,0,2.302,22.818,24.482,26.838c19.86,3.601,34.81-44.391,24.646-56.804c-3.39-4.141-11.759-8.08-19.016-7.872
					c-5.103,0.148-22.339,6.712-24.745,23.959c-3.432-3.616-7.709-4.656-9.819-3.142c-2.676,1.921-1.243,7.507-0.917,8.772
					C2115.494,454.99,2118.358,457.708,2119.737,458.854z"/>
			</g>
			
				<linearGradient id="SVGID_00000168830603401516400930000013954876371446145694_" gradientUnits="userSpaceOnUse" x1="1870.9487" y1="822.1104" x2="2234.6377" y2="822.1104" gradientTransform="matrix(1 0 0 1 84.2618 0)">
				<stop  offset="0" style="stop-color:#FF9085"/>
				<stop  offset="1" style="stop-color:#FB6FBB"/>
			</linearGradient>
			<path style="opacity:0.3;fill:url(#SVGID_00000168830603401516400930000013954876371446145694_);" d="M2315.818,797.294
				c-4.842-6.041-9.214-11.947-13.201-17.727c-22.196-7.437-41.398-10.204-56.887-10.956c-34.94-1.694-54.072,6.526-77.856-7.786
				c-26.996-16.246-22.218-38.797-48.27-51.385c-27.419-13.247-46.806,1.724-73.184-3.113c-15.93-2.92-35.334-13.574-55.136-44.65
				c15.164,74.82,59.265,128.405,31.779,177.003c-14.819,26.203-40.92,34.099-59.469,81.189
				c-3.139,7.972-14.498,36.809-4.075,45.895c9.179,8.002,24.273-8.893,51.087-5.63c28.396,3.455,35.031,25.268,54.135,22.093
				c12.457-2.072,17.827-12.707,36.177-39.22c26.568-38.386,39.85-57.579,49.372-64.309c37.57-26.551,66.609,8.075,109.453-18.217
				C2275.256,850.962,2332.725,776.968,2315.818,797.294z"/>
			<g>
				
					<linearGradient id="SVGID_00000132783216945300005510000005538038004112144778_" gradientUnits="userSpaceOnUse" x1="1963.0575" y1="829.5488" x2="2224.3176" y2="829.5488" gradientTransform="matrix(-1 0 0 1 4317.1064 0)">
					<stop  offset="0" style="stop-color:#444B8C"/>
					<stop  offset="0.9964" style="stop-color:#3E4177"/>
				</linearGradient>
				<path style="fill:url(#SVGID_00000132783216945300005510000005538038004112144778_);" d="M2347.651,810.131l-239.028,11.632
					c-3.289,0.161-6.291,1.923-8.032,4.719l-6.614,10.616c-3.292,5.283,0.664,12.099,6.885,11.862l253.187-9.646L2347.651,810.131z"
					/>
				
					<linearGradient id="SVGID_00000071521951388347827990000005171759027085473157_" gradientUnits="userSpaceOnUse" x1="1712.3113" y1="759.8799" x2="2070.9106" y2="759.8799" gradientTransform="matrix(-1 0 0 1 4317.1064 0)">
					<stop  offset="0" style="stop-color:#444B8C"/>
					<stop  offset="0.9964" style="stop-color:#3E4177"/>
				</linearGradient>
				<path style="fill:url(#SVGID_00000071521951388347827990000005171759027085473157_);" d="M2596.26,677.024l-246.942,4.786
					c-7.308,0.141-13.998,4.121-17.608,10.475l-85.513,150.452l260.801-10.391c7.158-0.285,13.691-4.161,17.37-10.308
					l79.228-132.361C2606.968,684.043,2602.825,676.897,2596.26,677.024z"/>
				
					<linearGradient id="SVGID_00000168111461283492949720000012162527753698610595_" gradientUnits="userSpaceOnUse" x1="1787.5229" y1="762.2211" x2="2070.9106" y2="762.2211" gradientTransform="matrix(-1 0 0 1 4317.1064 0)">
					<stop  offset="0" style="stop-color:#444B8C"/>
					<stop  offset="0.9964" style="stop-color:#3E4177"/>
				</linearGradient>
				<path style="fill:url(#SVGID_00000168111461283492949720000012162527753698610595_);" d="M2331.708,692.286
					c3.611-6.354,10.302-10.334,17.609-10.476l5.411-0.105c0.807,7.971,3.253,15.263,8.131,21.15
					c15.227,18.38,40.525,7.043,59.381,26.494c20.712,21.366,1.578,46.802,20.097,66.688c19.493,20.93,51.013,3.888,87.247,17.284
					l-5.218,8.716c-3.679,6.148-10.211,10.024-17.369,10.309l-260.801,10.391L2331.708,692.286z"/>
			</g>
			<g>
				
					<linearGradient id="SVGID_00000096022457011781288760000009192798246710307224_" gradientUnits="userSpaceOnUse" x1="2001.2209" y1="104.4473" x2="2015.3254" y2="1888.7457">
					<stop  offset="0" style="stop-color:#FF9085"/>
					<stop  offset="1" style="stop-color:#FB6FBB"/>
				</linearGradient>
				<path style="fill:url(#SVGID_00000096022457011781288760000009192798246710307224_);" d="M2128.1,802.144
					c3.112-8.216,6.223-16.43,9.334-24.647c-34.385-9.428-81.94-23.356-130.718-40.786c-7.639-2.731-16.715-6.111-19.687-14.15
					c-8.341-22.549,44.683-45.916,65.296-95.153c19.064-45.538,8.571-108.732-13.554-116.198
					c-46.038-15.534-209.299,187.685-150.989,273.353C1920.742,832.989,2022.36,840.7,2128.1,802.144z"/>
			</g>
			
				<linearGradient id="SVGID_00000178901486347168197040000000801983544028189837_" gradientUnits="userSpaceOnUse" x1="2106.1738" y1="778.0316" x2="2019.3265" y2="859.8742" gradientTransform="matrix(1 0 0 1 84.2618 0)">
				<stop  offset="0" style="stop-color:#FFC444"/>
				<stop  offset="0.9964" style="stop-color:#F36F56"/>
			</linearGradient>
			<path style="fill:url(#SVGID_00000178901486347168197040000000801983544028189837_);" d="M2137.434,777.497
				c21.587-11.467,47.426,0.287,49.091,1.074c4.744,2.239,11.646,6.227,18.621,13.352c0.789,1.075,10.153,14.05,6.741,18.208
				c-2.735,3.331-13.323,0.57-26.051-7.345c-5.334-0.749-13.276-1.435-22.79-0.559c-17.471,1.612-25.475,7.131-31.817,2.367
				c-4.644-3.487-6.227-10.862-4.555-16.345C2128.469,782.36,2133.78,779.439,2137.434,777.497z"/>
		</g>
		<g>
			<g>
				
					<linearGradient id="SVGID_00000038404459493927111100000017802931020673039807_" gradientUnits="userSpaceOnUse" x1="683.041" y1="1284.6968" x2="943.3185" y2="1703.1545">
					<stop  offset="0" style="stop-color:#311944"/>
					<stop  offset="1" style="stop-color:#893976"/>
				</linearGradient>
				<path style="fill:url(#SVGID_00000038404459493927111100000017802931020673039807_);" d="M1162.905,1384.4v291.42
					c0,42.154-35.239,76.216-78.934,76.024l-162.269-0.655l-21.429-0.077l-75.718,92.786c-5.742,4.469-19.498,4.662-24.123-0.926
					l-11.233-14.835l-58.753-77.719l-5.429-0.038l-148.385-0.578c-15.953-0.079-29.611-5.859-41.054-15.53
					c-15.144-12.715-23.871-32.175-23.871-53.945v-264.333c0-38.224,28.803-70.976,65.872-73.172l31.471-1.889l475.754-28.168
					c11.945-0.692,22.596,1.195,32.809,5.165C1144.7,1328.489,1162.905,1353.766,1162.905,1384.4z"/>
				
					<linearGradient id="SVGID_00000024702735456679661630000003430456569552401324_" gradientUnits="userSpaceOnUse" x1="671.7927" y1="1278.0842" x2="931.1778" y2="1695.1071">
					<stop  offset="0" style="stop-color:#FF9085"/>
					<stop  offset="1" style="stop-color:#FB6FBB"/>
				</linearGradient>
				<path style="fill:url(#SVGID_00000024702735456679661630000003430456569552401324_);" d="M1151.345,1376.885v290.611
					c0,42.039-36.394,76.024-79.82,75.909l-153.465-0.308l-30.205-0.077l-75.347,88.47c-5.471,6.397-15.191,6.357-20.508-0.077
					l-2.759-3.276l-64.207-77.757l-6.401-7.746l-153.015-0.346c-11.214-0.04-21.214-2.929-30.461-8.015
					c-21.193-11.56-35.009-34.641-35.009-61.189v-263.638c0-38.149,29.073-70.862,65.988-73.097l36.114-2.196l468.654-28.553
					c17.688-1.078,34.788,3.584,48.006,12.331C1138.136,1330.609,1151.345,1351.994,1151.345,1376.885z"/>
			</g>
			<g>
				<path style="fill:#FFFFFF;" d="M785.935,1587.48l26.287-0.628c7.327-0.175,13.388-6.44,13.772-13.815l9.623-185.192
					c0.199-3.817-1.174-6.964-3.793-9.545c-2.617-2.58-6.246-3.411-10.036-3.147l-45.271,3.153c-3.71,0.258-7.251,1.489-9.798,4.389
					c-2.544,2.895-3.873,6.369-3.681,10.1l9.363,181.819C772.776,1581.884,778.714,1587.652,785.935,1587.48z"/>
				<path style="fill:#FFFFFF;" d="M826.502,1632.717c-6.563-6.268-15.799-9.301-27.674-9.112
					c-12.241,0.195-21.521,3.423-27.874,9.669c-6.337,6.229-9.497,15.331-9.497,27.319c0,11.559,3.231,20.503,9.708,26.844
					c6.495,6.36,15.705,9.546,27.662,9.546c11.732,0,20.931-3.287,27.566-9.879c6.653-6.609,9.987-15.651,9.987-27.11
					C836.38,1648.1,833.082,1639.003,826.502,1632.717z"/>
			</g>
			
				<linearGradient id="SVGID_00000006691609727758981320000017895613060617753242_" gradientUnits="userSpaceOnUse" x1="500.3474" y1="1383.1881" x2="736.1743" y2="1762.3357">
				<stop  offset="0" style="stop-color:#FF9085"/>
				<stop  offset="1" style="stop-color:#FB6FBB"/>
			</linearGradient>
			<path style="opacity:0.3;fill:url(#SVGID_00000006691609727758981320000017895613060617753242_);" d="M922,1751.19l-21.579-0.077
				l-75.793,92.786c-5.742,4.469-19.535,4.662-24.16-0.926l-11.251-14.835l-64.196-77.757l-148.387-0.578
				c-15.953-0.079-30.037-5.859-41.48-15.53c-21.193-11.56-35.008-34.641-35.008-61.189v-263.638
				c0-38.149,29.073-70.862,65.988-73.097l36.114-2.196c2.273,2.158,4.338,4.391,6.459,6.781
				c24.198,26.626,41.28,65.891,38.159,123.766c-9.21,172.124,105.16,199.983,208.505,232.272
				c32.021,10.019,51.154,27.204,62.328,46.124C919.281,1745.756,920.691,1748.454,922,1751.19z"/>
		</g>
		<g>
			
				<linearGradient id="SVGID_00000153675856869391750220000005192132696990964132_" gradientUnits="userSpaceOnUse" x1="-980.1251" y1="2411.1377" x2="-1050.3508" y2="2487.0139" gradientTransform="matrix(-0.127 -0.9919 -0.9919 0.127 3033.6333 714.7271)">
				<stop  offset="0" style="stop-color:#FFC444"/>
				<stop  offset="0.9964" style="stop-color:#F36F56"/>
			</linearGradient>
			<path style="fill:url(#SVGID_00000153675856869391750220000005192132696990964132_);" d="M763.413,2003.511l14.81-21.209
				l30.237-12.454c0,0-12.122-22.053-40.059-5.602c-8.817,9.354-21.051,31.128-34.397,41.421
				C720.657,2015.959,763.413,2003.511,763.413,2003.511z"/>
			
				<linearGradient id="SVGID_00000091014128621059798350000002906497570642378930_" gradientUnits="userSpaceOnUse" x1="808.7822" y1="1172.9706" x2="710.0096" y2="2451.0366">
				<stop  offset="0.0036" style="stop-color:#E38DDD"/>
				<stop  offset="1" style="stop-color:#9571F6"/>
			</linearGradient>
			<path style="fill:url(#SVGID_00000091014128621059798350000002906497570642378930_);" d="M654.05,2019.206
				c30.911-33.84,67.825-50.823,87.433-58.406c5.997,2.481,15.226,7.333,21.012,16.715c25.203,40.858-54.274,103.751-35.018,143.978
				c12.841,26.826,53.233,9.402,105.327,53.935c24.999,21.37,27.284,35.287,24.223,45.65c-4.848,16.406-24.141,27.441-30.011,30.797
				c-50.984,29.157-156.813,21.193-201.486-43.438C588.138,2154.342,603.366,2074.69,654.05,2019.206z"/>
			
				<linearGradient id="SVGID_00000075882153524555351290000018446423026606710407_" gradientUnits="userSpaceOnUse" x1="954.5145" y1="3131.7664" x2="992.8991" y2="3165.9097" gradientTransform="matrix(-0.9902 -0.14 -0.14 0.9902 2088.2761 206.9384)">
				<stop  offset="0" style="stop-color:#444B8C"/>
				<stop  offset="0.9964" style="stop-color:#26264F"/>
			</linearGradient>
			<path style="fill:url(#SVGID_00000075882153524555351290000018446423026606710407_);" d="M693.875,3191.748
				c-1.092-6.017-20.525-11.464-30.147-3.404c-4.778,4.001-8.068,12.114-5.303,15.778c1.005,1.333-3.113,3.677,0.833,3.723
				C672.349,3207.998,694.962,3197.728,693.875,3191.748z"/>
			
				<linearGradient id="SVGID_00000062877595786402596630000013894247256932294041_" gradientUnits="userSpaceOnUse" x1="66.2234" y1="3165.957" x2="66.2234" y2="3099.0876" gradientTransform="matrix(-0.9902 -0.14 -0.14 0.9902 1172.075 77.4224)">
				<stop  offset="0" style="stop-color:#FFC444"/>
				<stop  offset="0.9964" style="stop-color:#F36F56"/>
			</linearGradient>
			<path style="fill:url(#SVGID_00000062877595786402596630000013894247256932294041_);" d="M673.507,3193.938l-19.985-2.825
				c9.259-11.148,7.545-46.649,7.545-46.649l21.254,4.744c0,0-2.422,9.745-6.541,24.119
				C674.369,3178.247,673.739,3185.948,673.507,3193.938z"/>
			
				<linearGradient id="SVGID_00000145751436298436785250000013575247741288560567_" gradientUnits="userSpaceOnUse" x1="958.3735" y1="3127.429" x2="996.7578" y2="3161.572" gradientTransform="matrix(-0.9902 -0.14 -0.14 0.9902 2088.2761 206.9384)">
				<stop  offset="0" style="stop-color:#444B8C"/>
				<stop  offset="0.9964" style="stop-color:#26264F"/>
			</linearGradient>
			<path style="fill:url(#SVGID_00000145751436298436785250000013575247741288560567_);" d="M675.28,3191.477
				c0,0-24.062-5.544-26.664-0.771c-2.603,4.773-4.623,17.552,10.642,17.14C674.524,3207.433,676.635,3195.523,675.28,3191.477z"/>
			
				<linearGradient id="SVGID_00000069393477917508964330000004403887635273889947_" gradientUnits="userSpaceOnUse" x1="1009.0791" y1="3195.6052" x2="1047.4653" y2="3229.75" gradientTransform="matrix(-1 0 0 1 1985.4333 0)">
				<stop  offset="0" style="stop-color:#444B8C"/>
				<stop  offset="0.9964" style="stop-color:#26264F"/>
			</linearGradient>
			<path style="fill:url(#SVGID_00000069393477917508964330000004403887635273889947_);" d="M968.099,3214.313
				c-1.924-5.805-21.928-8.478-30.328,0.849c-4.17,4.631-6.293,13.124-3.042,16.364c1.182,1.18-2.568,4.078,1.346,3.571
				C949.058,3233.416,970.011,3220.081,968.099,3214.313z"/>
			
				<linearGradient id="SVGID_00000165913299627299727210000001457370084353836963_" gradientUnits="userSpaceOnUse" x1="120.7445" y1="3229.8181" x2="120.7445" y2="3162.9458" gradientTransform="matrix(-1 0 0 1 1060.123 0)">
				<stop  offset="0" style="stop-color:#FFC444"/>
				<stop  offset="0.9964" style="stop-color:#F36F56"/>
			</linearGradient>
			<path style="fill:url(#SVGID_00000165913299627299727210000001457370084353836963_);" d="M948.237,3219.332h-20.184
				c7.608-12.334,0.941-47.245,0.941-47.245l21.709,1.722c0,0-1.034,9.988-3.101,24.796
				C946.895,3203.675,947.349,3211.388,948.237,3219.332z"/>
			
				<linearGradient id="SVGID_00000032623113304451638240000000655518980374571197_" gradientUnits="userSpaceOnUse" x1="1232.8425" y1="3260.4834" x2="982.537" y2="2249.8777" gradientTransform="matrix(1 0 0 1 -290.3139 0)">
				<stop  offset="0" style="stop-color:#444B8C"/>
				<stop  offset="0.9964" style="stop-color:#26264F"/>
			</linearGradient>
			<path style="fill:url(#SVGID_00000032623113304451638240000000655518980374571197_);" d="M1000.547,2456.049
				c9.35,30.876,22.703,80.711,31.297,143.235c24.517,178.339-27.592,184.028-17.861,381.65
				c3.106,63.082-54.65,208.542-59.741,211.754c-2.464,0.239-5.137,0.399-7.987,0.313c-5.023-0.152-12.106-0.921-20.343-3.391
				c-9.149-1.576-42.135-90.921-34.489-144.042c5.411-37.598,3.842-77.946,0.705-158.646
				c-0.508-13.075-33.963-254.398-33.963-254.398c-10.177,89.324-21.88,165.221-32.026,224.065
				c-32.598,189.055-138.588,303.485-144.117,305.32c-1.092,0.438-11.038,4.051-19.169-1.308c-3.619-2.385-4.851-5.463-4.851-5.463
				c-2.835-2.22,0.836-188.75,33.164-329.131c46.925-203.761,26.492-251.437,41.359-342.449
				C745.389,2404.806,1000.547,2456.049,1000.547,2456.049z"/>
			
				<linearGradient id="SVGID_00000163751950033903097780000017128508079674212507_" gradientUnits="userSpaceOnUse" x1="944.0221" y1="1166.8524" x2="845.2497" y2="2444.9158">
				<stop  offset="0.0036" style="stop-color:#E38DDD"/>
				<stop  offset="1" style="stop-color:#9571F6"/>
			</linearGradient>
			<path style="fill:url(#SVGID_00000163751950033903097780000017128508079674212507_);" d="M1013.102,2486.816
				c-28.151,14.504-100.748,40.363-187.221,27.523c-39.508-5.882-71.116-19.037-93.341-30.755
				c22.405-67.928,4.805-104.295-3.501-137.834c-11.807-47.769-12.033-44.178-21.776-82.117
				c-16.073-62.63-18.722-126.654-7.677-139.718c23.032-27.298,60.297-34.258,88.941-36.367c8.44-0.629,16.117-0.853,22.492-1.032
				c15.94-0.493,42.518-3.593,69.95-1.796c26.131,1.796,53.024,8.037,72.238,25.366c0.675,0.583-7.407,4.939-3.411,9.563
				c3.681,4.356,16.343,19.485,27.837,39.958c8.35,14.861,15.848,32.147,23.435,57.919c13.335,45.434,17.196,84.136,18.454,101.018
				C1026.751,2413.322,1019.567,2457.096,1013.102,2486.816z"/>
			
				<linearGradient id="SVGID_00000016074387285719315150000000165834602699954560_" gradientUnits="userSpaceOnUse" x1="1012.9388" y1="3191.2681" x2="1051.3242" y2="3225.4119" gradientTransform="matrix(-1 0 0 1 1985.4333 0)">
				<stop  offset="0" style="stop-color:#444B8C"/>
				<stop  offset="0.9964" style="stop-color:#26264F"/>
			</linearGradient>
			<path style="fill:url(#SVGID_00000016074387285719315150000000165834602699954560_);" d="M949.648,3216.646
				c0,0-24.601-2.121-26.509,2.969c-1.909,5.09-2.121,18.027,12.936,15.481C951.133,3232.552,951.557,3220.463,949.648,3216.646z"/>
			
				<linearGradient id="SVGID_00000082369465966284000970000016165103545825976973_" gradientUnits="userSpaceOnUse" x1="-92.6813" y1="1401.4462" x2="-145.4721" y2="1486.843" gradientTransform="matrix(-0.9717 -0.2361 -0.2361 0.9717 1065.225 640.4756)">
				<stop  offset="0" style="stop-color:#FFC444"/>
				<stop  offset="0.9964" style="stop-color:#F36F56"/>
			</linearGradient>
			<path style="fill:url(#SVGID_00000082369465966284000970000016165103545825976973_);" d="M831.478,2042.015
				c-4.414-2.642-7.777,3.037-5.698,8c2.079,4.963,9.067,8.069,13.305,5.11C843.324,2052.166,837.418,2045.57,831.478,2042.015z"/>
			
				<linearGradient id="SVGID_00000101084866586617821830000017235153886878092202_" gradientUnits="userSpaceOnUse" x1="824.2305" y1="1981.431" x2="874.3226" y2="2433.2222">
				<stop  offset="0" style="stop-color:#FFC444"/>
				<stop  offset="0.9964" style="stop-color:#F36F56"/>
			</linearGradient>
			<path style="fill:url(#SVGID_00000101084866586617821830000017235153886878092202_);" d="M886.223,2091.679
				c0,8.576-22.269,15.534-49.79,15.534c-27.477,0-49.746-6.958-49.746-15.534c0-1.436,0.629-2.828,1.841-4.13
				c8.44-0.629,16.117-0.853,22.492-1.032c15.94-0.493,42.518-3.593,69.95-1.796C884.337,2086.83,886.223,2089.211,886.223,2091.679
				z"/>
			<g>
				
					<linearGradient id="SVGID_00000044155291569538985510000018131342623938428307_" gradientUnits="userSpaceOnUse" x1="822.1501" y1="1981.6616" x2="872.2422" y2="2433.4534">
					<stop  offset="0" style="stop-color:#FFC444"/>
					<stop  offset="0.9964" style="stop-color:#F36F56"/>
				</linearGradient>
				<path style="fill:url(#SVGID_00000044155291569538985510000018131342623938428307_);" d="M849.806,2085.032
					c-2.877-6.479-5.755-12.958-8.635-19.438c2.519-2.476,19-14.806,18.66-28.767c-0.462-18.951-15.528-33.42-18.484-36.322
					c-12.377-12.15-15.012-13.518-19.556-14.887l-6.232-1.622c0,0-0.342-0.03-0.695-0.044c-3.732-0.165-15.299,3.006-17.469,4.217
					c-6.93,3.86-5.549,36.503,9.823,78.531c0.192,1.723,0.4,3.454,0.621,5.198c1.381,10.853,3.227,21.22,5.413,31.086
					C813.252,2102.984,841.625,2104.196,849.806,2085.032z"/>
			</g>
			<path style="fill:#26264F;" d="M834.203,1977.496c4.021,13.249-4.874,18.942-7.353,22.189c-0.32,0.419-2.069,2.953-3.186,6.709
				c-0.153,0.511-0.249,1.085-0.274,1.795c-0.338,9.231,15.937,14.973,14.525,19.494c-1.025,3.279-11.15,2.424-11.503,5.093
				c-0.334,2.511,8.556,4.771,8.219,7.759c-0.254,2.256-5.423,1.851-7.394,5.793c-0.983,1.964-0.187,3.037-0.297,8.152
				c-0.062,2.893-0.394,6.139-0.844,8.026c-2.188,9.176-14.271,15.992-17.718,13.648c-0.96-0.654-0.588-1.564-2.19-4.255
				c0,0-1.485-2.494-4.318-5.034c-4.047-3.63-11.493-4.827-19.464-7.523c-14.76-4.992-20.324-11.403-22.08-13.607
				c-0.625-0.785-1.05-1.392-1.356-1.83c-6.139-8.79-10.554-23.115-8.874-33.273c2.814-17.018,21.539-15.099,30.613-33.891
				c5.058-10.474,8.104-21.451,20.283-25.758c9.479-3.352,18.221,0.037,23.88,8.085
				C828.609,1964.381,832.314,1971.273,834.203,1977.496z"/>
			
				<linearGradient id="SVGID_00000001624399228743038670000004386733819859420843_" gradientUnits="userSpaceOnUse" x1="826.821" y1="1981.1438" x2="876.9133" y2="2432.936">
				<stop  offset="0" style="stop-color:#FFC444"/>
				<stop  offset="0.9964" style="stop-color:#F36F56"/>
			</linearGradient>
			<path style="fill:url(#SVGID_00000001624399228743038670000004386733819859420843_);" d="M832.201,2026.033
				c-4.613-3.461-9.027,2.478-7.288,8.254c1.737,5.777,9.166,10.057,14.237,7.253
				C844.222,2038.737,838.409,2030.692,832.201,2026.033z"/>
			
				<linearGradient id="SVGID_00000072269393144713098220000003702206221432569779_" gradientUnits="userSpaceOnUse" x1="1771.7833" y1="1331.0394" x2="1819.2252" y2="1371.4292" gradientTransform="matrix(0.9067 -0.4217 0.4217 0.9067 -1359.3041 1493.8378)">
				<stop  offset="0" style="stop-color:#FFC444"/>
				<stop  offset="0.9964" style="stop-color:#F36F56"/>
			</linearGradient>
			<path style="fill:url(#SVGID_00000072269393144713098220000003702206221432569779_);" d="M874.568,1957.399l-20.5-12.637
				c0,0-19-8.617-39.815,5.073c-20.815,13.691-11.899,23.607-11.899,23.607l15.313-6.916c0,0,9.864-4.528,25.142,2.237
				c17.622,5.116,29.899,3.843,29.899,3.843L874.568,1957.399z"/>
			
				<linearGradient id="SVGID_00000178200423127452092800000014026004990188519067_" gradientUnits="userSpaceOnUse" x1="1036.9039" y1="1174.0305" x2="938.1313" y2="2452.0972">
				<stop  offset="0.0036" style="stop-color:#E38DDD"/>
				<stop  offset="1" style="stop-color:#9571F6"/>
			</linearGradient>
			<path style="fill:url(#SVGID_00000178200423127452092800000014026004990188519067_);" d="M970.444,1939.549
				c-43.441-14.612-83.96-11.57-104.786-8.697c-4.042,5.077-9.762,13.796-10.275,24.806
				c-2.236,47.954,97.767,64.433,100.426,108.951c1.773,29.688-42.001,34.03-65.975,98.235c-11.505,30.811-6.756,44.09,0.945,51.67
				c12.193,11.999,34.418,12.297,41.179,12.387c58.728,0.785,147.428-57.485,155.168-135.67
				C1093.605,2025.789,1041.672,1963.506,970.444,1939.549z"/>
		</g>
	</g>
</g>
</svg>
